<!--?xml version="1.0" standalone="no"?-->
              <svg id="sw-js-blob-svg" viewBox="0 0 100 100" xmlns="http://www.w3.org/2000/svg" version="1.1">
                    <defs> 
                        <linearGradient id="sw-gradient" x1="0" x2="1" y1="1" y2="0">
                            <stop id="stop1" stop-color="rgba(58.706, 49.725, 228.437, 1)" offset="0%"></stop>
                            <stop id="stop2" stop-color="rgba(169.574, 170.692, 251.205, 1)" offset="100%"></stop>
                        </linearGradient>
                    </defs>
                <path fill="url(#sw-gradient)" d="M19,-23.1C24.8,-17.7,29.9,-11.9,31.1,-5.5C32.2,1,29.4,8.2,25.8,15.3C22.2,22.5,17.8,29.6,11.1,33.1C4.5,36.6,-4.4,36.6,-13.1,34.2C-21.8,31.8,-30.3,27.1,-36,19.6C-41.8,12.1,-44.9,1.8,-43.2,-7.6C-41.6,-17.1,-35.2,-25.8,-27.3,-30.8C-19.3,-35.8,-9.6,-37.2,-1.5,-35.4C6.6,-33.6,13.1,-28.5,19,-23.1Z" width="100%" height="100%" transform="translate(50 50)" style="transition: all 0.3s ease 0s;" stroke-width="0"></path>
              </svg>